<?xml version="1.0" encoding="UTF-8"?>
<svg width="42px" height="42px" viewBox="0 0 42 42" version="1.1" xmlns="http://www.w3.org/2000/svg" xmlns:xlink="http://www.w3.org/1999/xlink">
<g stroke="none" stroke-width="1" fill="none" fill-rule="evenodd">
<g fill-rule="nonzero">
<g transform="translate(0.000000, 2.000000)">
<polygon fill="#FF0000" points="0 36 42 36 42 4 0 4"></polygon>
<g transform="translate(9.000000, 0.000000)" fill="#000000">
<path d="M0,2.54269565 C0,1.13830435 1.1190815,0 2.50009616,0 C3.88111081,0 5,1.13967391 5,2.54269565 L5,6.45652174 C5,7.86091304 3.88111081,9 2.50009616,9 C1.11965845,9 0,7.85973913 0,6.45652174 L0,2.54269565 Z"></path>
<path d="M19,2.54269565 C19,1.13830435 20.1190815,0 21.5000962,0 C22.8811108,0 24,1.13967391 24,2.54269565 L24,6.45652174 C24,7.86091304 22.8811108,9 21.5000962,9 C20.1196584,9 19,7.85973913 19,6.45652174 L19,2.54269565 Z"></path>
</g>
<g transform="translate(9.000000, 12.000000)" fill="#F0EBDD">
<path d="M7.72611897,10.2610725 C9.23699505,8.67888872 10.282606,7.02557374 10.282606,5.0218979 C10.282606,1.57088751 7.99034578,1.77635684e-15 4.72201724,1.77635684e-15 C3.19490278,1.77635684e-15 1.47575174,0.535337282 0.633297121,1.02425396 L0.633297121,3.74083032 C2.03880018,2.95997567 3.25597324,2.36586249 4.72201724,2.36586249 C6.04950544,2.36586249 7.33004351,3.1998449 7.33004351,5.16168924 C7.33004351,6.90731592 5.92665851,8.5901071 4.89746243,9.58311981 C3.86879587,10.5768385 1.48934256,12.8555079 0,14.136046 L0,16.8792745 L10.1943539,16.8792745 L10.1943539,14.4382212 L3.10206157,14.4382212 C4.71178,13.025305 6.40269037,11.6462776 7.72611897,10.2610725"></path>
<path d="M20.2364598,8.12272394 C22.3137379,7.64227947 23.2710968,5.99567165 23.2710968,4.43502139 C23.2710968,1.99696868 21.4451607,0 17.645378,0 C15.9061054,0 14.6679284,0.258578674 13.5,0.834688429 L13.5,3.49637198 C14.6707525,2.76864511 15.7273067,2.3579198 17.4355145,2.3579198 C19.2693933,2.3579198 20.4232013,3.0533464 20.4232013,4.64506141 C20.4232013,6.47841068 18.5367243,7.07252387 17.2713655,7.07252387 L15.4516071,7.07252387 L15.4516071,9.47686427 L17.2713655,9.47686427 C19.3576454,9.47686427 20.9834257,10.2428926 20.9834257,12.0910682 C20.9834257,14.4516356 18.9379183,14.8217649 17.4586365,14.8217649 C15.7871416,14.8217649 14.7992475,14.4443989 13.5,13.6345975 L13.5,16.4231876 C14.2492604,16.8072608 15.9133421,17.1791552 17.5758353,17.1791552 C21.101154,17.1791552 23.947814,15.4820672 23.947814,12.230683 C23.947814,10.0494439 22.3640416,8.49214726 20.2364598,8.12272394"></path>
</g>
</g>
</g>
</g>
</svg>
